# xmcd
#
# Track frame offsets:
#	150
#	17343
#	28071
#	36640
#	53236
#	70749
#	92585
#	121631
#	138831
#	154418
#	175393
#	188339
#	205143
#	225448
#	240557
#	257711
#	274958
#	293260
#	312192
#	322311
#	335621
#
# Disc length: 4719
#
# Revision: 2
# Processed by: cddbd v1.5.1PL0 Copyright (c) Steve Scherf et al.
# Submitted via: audiograbber 1.83.01
# Normalized: r1:DSETVAR1
#
DISCID=23126d15
DTITLE=Various Artist - CDXMAS 1018 - A
DYEAR=2004
DGENRE=Country
TTITLE0=Vince VANCE and the Valiants - All I want for Christmas is you
TTITLE1=Chris ISAAK - Christmas on TV
TTITLE2=Larry the Cable Guy - Easy to assemble
TTITLE3=Kenny CHESNEY and Randy OWEN - Christmas in Dixie
TTITLE4=LONESTAR - This Christmas time
TTITLE5=Sara EVANS - O come all ye faithful
TTITLE6=Sara EVANS and Brad PAISLEY - New again
TTITLE7=Martina McBRIDE - O holy night
TTITLE8=Martina McBRIDE - Silent night
TTITLE9=Against The Grain - It's about time
TTITLE10=4 SISTERS and a Cousin - White Christmas
TTITLE11=LeAnn RIMES - A different kind of Christmas
TTITLE12=Clint BLACK - Christmas with you
TTITLE13=SheDAISY - That's what I want for Christmas
TTITLE14=Lee Ann WOMACK and Harry CONNICK Jr. - It's cold outside
TTITLE15=Jimmy WAYNE - Paper angels
TTITLE16=Alison KRAUSS - Shimmy down the chimney
TTITLE17=Kacey JONES - I'm down to my Christmas underwear
TTITLE18=Charley PRIDE - Snow flake
TTITLE19=Jim Ed BROWN - Bigfoot rides with Santa
TTITLE20=Davis DANIEL - Christmas in Cancun
EXTD=
EXTT0=
EXTT1=
EXTT2=
EXTT3=
EXTT4=
EXTT5=
EXTT6=
EXTT7=
EXTT8=
EXTT9=
EXTT10=
EXTT11=
EXTT12=
EXTT13=
EXTT14=
EXTT15=
EXTT16=
EXTT17=
EXTT18=
EXTT19=
EXTT20=
PLAYORDER=
